<mxfile host="app.diagrams.net" agent="Mozilla/5.0 (Windows NT 10.0; Win64; x64) AppleWebKit/537.36 (KHTML, like Gecko) Chrome/130.0.0.0 Safari/537.36 Edg/130.0.0.0" version="24.8.3" pages="8">
  <diagram name="BT2" id="S3tI4eDwRzl3f1jZ_H7S">
    <mxGraphModel dx="1042" dy="565" grid="1" gridSize="10" guides="1" tooltips="1" connect="1" arrows="1" fold="1" page="1" pageScale="1" pageWidth="827" pageHeight="1169" math="0" shadow="0">
      <root>
        <mxCell id="0" />
        <mxCell id="1" parent="0" />
        <mxCell id="iG-6inlr2kLziY47SVc3-1" value="Book" style="swimlane;childLayout=stackLayout;horizontal=1;startSize=50;horizontalStack=0;rounded=1;fontSize=14;fontStyle=0;strokeWidth=2;resizeParent=0;resizeLast=1;shadow=0;dashed=0;align=center;arcSize=4;whiteSpace=wrap;html=1;" vertex="1" parent="1">
          <mxGeometry x="320" y="240" width="160" height="120" as="geometry" />
        </mxCell>
        <mxCell id="iG-6inlr2kLziY47SVc3-2" value="+Attribute1&#xa;+Attribute2&#xa;+Attribute3" style="align=left;strokeColor=none;fillColor=none;spacingLeft=4;fontSize=12;verticalAlign=top;resizable=0;rotatable=0;part=1;html=1;" vertex="1" parent="iG-6inlr2kLziY47SVc3-1">
          <mxGeometry y="50" width="160" height="70" as="geometry" />
        </mxCell>
        <mxCell id="iG-6inlr2kLziY47SVc3-3" value="Publisher" style="swimlane;childLayout=stackLayout;horizontal=1;startSize=50;horizontalStack=0;rounded=1;fontSize=14;fontStyle=0;strokeWidth=2;resizeParent=0;resizeLast=1;shadow=0;dashed=0;align=center;arcSize=4;whiteSpace=wrap;html=1;" vertex="1" parent="1">
          <mxGeometry x="600" y="240" width="160" height="120" as="geometry" />
        </mxCell>
        <mxCell id="iG-6inlr2kLziY47SVc3-4" value="+Attribute1&#xa;+Attribute2&#xa;+Attribute3" style="align=left;strokeColor=none;fillColor=none;spacingLeft=4;fontSize=12;verticalAlign=top;resizable=0;rotatable=0;part=1;html=1;" vertex="1" parent="iG-6inlr2kLziY47SVc3-3">
          <mxGeometry y="50" width="160" height="70" as="geometry" />
        </mxCell>
        <mxCell id="iG-6inlr2kLziY47SVc3-5" value="Author" style="swimlane;childLayout=stackLayout;horizontal=1;startSize=50;horizontalStack=0;rounded=1;fontSize=14;fontStyle=0;strokeWidth=2;resizeParent=0;resizeLast=1;shadow=0;dashed=0;align=center;arcSize=4;whiteSpace=wrap;html=1;" vertex="1" parent="1">
          <mxGeometry x="40" y="240" width="160" height="120" as="geometry" />
        </mxCell>
        <mxCell id="iG-6inlr2kLziY47SVc3-6" value="+Attribute1&#xa;+Attribute2&#xa;+Attribute3" style="align=left;strokeColor=none;fillColor=none;spacingLeft=4;fontSize=12;verticalAlign=top;resizable=0;rotatable=0;part=1;html=1;" vertex="1" parent="iG-6inlr2kLziY47SVc3-5">
          <mxGeometry y="50" width="160" height="70" as="geometry" />
        </mxCell>
        <mxCell id="iG-6inlr2kLziY47SVc3-13" value="" style="fontSize=12;html=1;endArrow=ERoneToMany;startArrow=ERmandOne;rounded=0;exitX=0;exitY=0.25;exitDx=0;exitDy=0;entryX=1;entryY=0.25;entryDx=0;entryDy=0;" edge="1" parent="1" source="iG-6inlr2kLziY47SVc3-4" target="iG-6inlr2kLziY47SVc3-2">
          <mxGeometry width="100" height="100" relative="1" as="geometry">
            <mxPoint x="470" y="440" as="sourcePoint" />
            <mxPoint x="580" y="360" as="targetPoint" />
          </mxGeometry>
        </mxCell>
        <mxCell id="iG-6inlr2kLziY47SVc3-14" value="" style="fontSize=12;html=1;endArrow=ERoneToMany;startArrow=ERmandOne;rounded=0;exitX=1;exitY=0.25;exitDx=0;exitDy=0;entryX=0;entryY=0.25;entryDx=0;entryDy=0;" edge="1" parent="1" source="iG-6inlr2kLziY47SVc3-6" target="iG-6inlr2kLziY47SVc3-2">
          <mxGeometry width="100" height="100" relative="1" as="geometry">
            <mxPoint x="350" y="410" as="sourcePoint" />
            <mxPoint x="230" y="410" as="targetPoint" />
          </mxGeometry>
        </mxCell>
      </root>
    </mxGraphModel>
  </diagram>
  <diagram id="E33m_eQVtyjvjYhZTn2i" name="BT3">
    <mxGraphModel dx="1042" dy="565" grid="1" gridSize="10" guides="1" tooltips="1" connect="1" arrows="1" fold="1" page="1" pageScale="1" pageWidth="827" pageHeight="1169" math="0" shadow="0">
      <root>
        <mxCell id="0" />
        <mxCell id="1" parent="0" />
        <mxCell id="ahCoKVd4SMPCO-5dEFui-1" value="Course" style="swimlane;childLayout=stackLayout;horizontal=1;startSize=50;horizontalStack=0;rounded=1;fontSize=14;fontStyle=0;strokeWidth=2;resizeParent=0;resizeLast=1;shadow=0;dashed=0;align=center;arcSize=4;whiteSpace=wrap;html=1;" vertex="1" parent="1">
          <mxGeometry x="600" y="240" width="160" height="120" as="geometry" />
        </mxCell>
        <mxCell id="ahCoKVd4SMPCO-5dEFui-2" value="courseID&lt;div&gt;courseName&lt;/div&gt;&lt;div&gt;price&lt;/div&gt;" style="align=left;strokeColor=none;fillColor=none;spacingLeft=4;fontSize=12;verticalAlign=top;resizable=0;rotatable=0;part=1;html=1;" vertex="1" parent="ahCoKVd4SMPCO-5dEFui-1">
          <mxGeometry y="50" width="160" height="70" as="geometry" />
        </mxCell>
        <mxCell id="ahCoKVd4SMPCO-5dEFui-3" value="Enrollment" style="swimlane;childLayout=stackLayout;horizontal=1;startSize=50;horizontalStack=0;rounded=1;fontSize=14;fontStyle=0;strokeWidth=2;resizeParent=0;resizeLast=1;shadow=0;dashed=0;align=center;arcSize=4;whiteSpace=wrap;html=1;" vertex="1" parent="1">
          <mxGeometry x="320" y="240" width="160" height="120" as="geometry" />
        </mxCell>
        <mxCell id="ahCoKVd4SMPCO-5dEFui-4" value="studentID&lt;div&gt;courseID&lt;/div&gt;&lt;div&gt;registrationDate&lt;/div&gt;" style="align=left;strokeColor=none;fillColor=none;spacingLeft=4;fontSize=12;verticalAlign=top;resizable=0;rotatable=0;part=1;html=1;" vertex="1" parent="ahCoKVd4SMPCO-5dEFui-3">
          <mxGeometry y="50" width="160" height="70" as="geometry" />
        </mxCell>
        <mxCell id="ahCoKVd4SMPCO-5dEFui-5" value="Student" style="swimlane;childLayout=stackLayout;horizontal=1;startSize=50;horizontalStack=0;rounded=1;fontSize=14;fontStyle=0;strokeWidth=2;resizeParent=0;resizeLast=1;shadow=0;dashed=0;align=center;arcSize=4;whiteSpace=wrap;html=1;" vertex="1" parent="1">
          <mxGeometry x="40" y="240" width="160" height="120" as="geometry" />
        </mxCell>
        <mxCell id="ahCoKVd4SMPCO-5dEFui-6" value="studentID&lt;br&gt;studentName&lt;br&gt;DateOfBirth" style="align=left;strokeColor=none;fillColor=none;spacingLeft=4;fontSize=12;verticalAlign=top;resizable=0;rotatable=0;part=1;html=1;" vertex="1" parent="ahCoKVd4SMPCO-5dEFui-5">
          <mxGeometry y="50" width="160" height="70" as="geometry" />
        </mxCell>
        <mxCell id="ahCoKVd4SMPCO-5dEFui-9" value="studentID&lt;br&gt;studentName&lt;br&gt;DateOfBirth" style="align=left;strokeColor=none;fillColor=none;spacingLeft=4;fontSize=12;verticalAlign=top;resizable=0;rotatable=0;part=1;html=1;" vertex="1" parent="ahCoKVd4SMPCO-5dEFui-5">
          <mxGeometry y="120" width="160" as="geometry" />
        </mxCell>
        <mxCell id="ahCoKVd4SMPCO-5dEFui-10" value="" style="edgeStyle=entityRelationEdgeStyle;fontSize=12;html=1;endArrow=ERoneToMany;rounded=0;entryX=1;entryY=0.25;entryDx=0;entryDy=0;exitX=0;exitY=0.25;exitDx=0;exitDy=0;" edge="1" parent="1" source="ahCoKVd4SMPCO-5dEFui-2" target="ahCoKVd4SMPCO-5dEFui-4">
          <mxGeometry width="100" height="100" relative="1" as="geometry">
            <mxPoint x="470" y="480" as="sourcePoint" />
            <mxPoint x="570" y="380" as="targetPoint" />
          </mxGeometry>
        </mxCell>
        <mxCell id="ahCoKVd4SMPCO-5dEFui-11" value="" style="edgeStyle=entityRelationEdgeStyle;fontSize=12;html=1;endArrow=ERoneToMany;rounded=0;entryX=0;entryY=0.25;entryDx=0;entryDy=0;exitX=1;exitY=0.25;exitDx=0;exitDy=0;" edge="1" parent="1" source="ahCoKVd4SMPCO-5dEFui-6" target="ahCoKVd4SMPCO-5dEFui-4">
          <mxGeometry width="100" height="100" relative="1" as="geometry">
            <mxPoint x="190" y="440" as="sourcePoint" />
            <mxPoint x="290" y="340" as="targetPoint" />
          </mxGeometry>
        </mxCell>
      </root>
    </mxGraphModel>
  </diagram>
  <diagram id="HDx0lRywUB1b465FJepI" name="BT4">
    <mxGraphModel dx="1042" dy="565" grid="1" gridSize="10" guides="1" tooltips="1" connect="1" arrows="1" fold="1" page="1" pageScale="1" pageWidth="827" pageHeight="1169" math="0" shadow="0">
      <root>
        <mxCell id="0" />
        <mxCell id="1" parent="0" />
        <mxCell id="H5hN4v5wa3abcocXyp6K-1" value="Order" style="swimlane;childLayout=stackLayout;horizontal=1;startSize=50;horizontalStack=0;rounded=1;fontSize=14;fontStyle=0;strokeWidth=2;resizeParent=0;resizeLast=1;shadow=0;dashed=0;align=center;arcSize=4;whiteSpace=wrap;html=1;" vertex="1" parent="1">
          <mxGeometry x="320" y="240" width="160" height="120" as="geometry" />
        </mxCell>
        <mxCell id="H5hN4v5wa3abcocXyp6K-2" value="Madonhang&lt;div&gt;Ngaydathang&lt;/div&gt;&lt;div&gt;Tốngtien&lt;/div&gt;" style="align=left;strokeColor=none;fillColor=none;spacingLeft=4;fontSize=12;verticalAlign=top;resizable=0;rotatable=0;part=1;html=1;" vertex="1" parent="H5hN4v5wa3abcocXyp6K-1">
          <mxGeometry y="50" width="160" height="70" as="geometry" />
        </mxCell>
        <mxCell id="H5hN4v5wa3abcocXyp6K-3" value="Cart" style="swimlane;childLayout=stackLayout;horizontal=1;startSize=50;horizontalStack=0;rounded=1;fontSize=14;fontStyle=0;strokeWidth=2;resizeParent=0;resizeLast=1;shadow=0;dashed=0;align=center;arcSize=4;whiteSpace=wrap;html=1;" vertex="1" parent="1">
          <mxGeometry x="600" y="240" width="160" height="120" as="geometry" />
        </mxCell>
        <mxCell id="H5hN4v5wa3abcocXyp6K-4" value="Masanpham&lt;div&gt;Madonhang&lt;/div&gt;" style="align=left;strokeColor=none;fillColor=none;spacingLeft=4;fontSize=12;verticalAlign=top;resizable=0;rotatable=0;part=1;html=1;" vertex="1" parent="H5hN4v5wa3abcocXyp6K-3">
          <mxGeometry y="50" width="160" height="70" as="geometry" />
        </mxCell>
        <mxCell id="H5hN4v5wa3abcocXyp6K-5" value="Customer" style="swimlane;childLayout=stackLayout;horizontal=1;startSize=50;horizontalStack=0;rounded=1;fontSize=14;fontStyle=0;strokeWidth=2;resizeParent=0;resizeLast=1;shadow=0;dashed=0;align=center;arcSize=4;whiteSpace=wrap;html=1;" vertex="1" parent="1">
          <mxGeometry x="40" y="240" width="160" height="120" as="geometry" />
        </mxCell>
        <mxCell id="H5hN4v5wa3abcocXyp6K-6" value="Makhachhang&lt;div&gt;Tenkhachhang&lt;/div&gt;&lt;div&gt;Diachi&lt;span style=&quot;white-space: pre;&quot;&gt;&#x9;&lt;/span&gt;&lt;/div&gt;&lt;div&gt;Email&lt;/div&gt;" style="align=left;strokeColor=none;fillColor=none;spacingLeft=4;fontSize=12;verticalAlign=top;resizable=0;rotatable=0;part=1;html=1;" vertex="1" parent="H5hN4v5wa3abcocXyp6K-5">
          <mxGeometry y="50" width="160" height="70" as="geometry" />
        </mxCell>
        <mxCell id="H5hN4v5wa3abcocXyp6K-8" value="" style="fontSize=12;html=1;endArrow=ERoneToMany;startArrow=ERmandOne;rounded=0;exitX=1;exitY=0.25;exitDx=0;exitDy=0;entryX=0;entryY=0.25;entryDx=0;entryDy=0;" edge="1" parent="1" source="H5hN4v5wa3abcocXyp6K-6" target="H5hN4v5wa3abcocXyp6K-2">
          <mxGeometry width="100" height="100" relative="1" as="geometry">
            <mxPoint x="350" y="410" as="sourcePoint" />
            <mxPoint x="230" y="410" as="targetPoint" />
          </mxGeometry>
        </mxCell>
        <mxCell id="H5hN4v5wa3abcocXyp6K-9" value="Product" style="swimlane;childLayout=stackLayout;horizontal=1;startSize=50;horizontalStack=0;rounded=1;fontSize=14;fontStyle=0;strokeWidth=2;resizeParent=0;resizeLast=1;shadow=0;dashed=0;align=center;arcSize=4;whiteSpace=wrap;html=1;" vertex="1" parent="1">
          <mxGeometry x="600" y="480" width="160" height="120" as="geometry" />
        </mxCell>
        <mxCell id="H5hN4v5wa3abcocXyp6K-10" value="Masanpham&lt;div&gt;Tensanpham&lt;/div&gt;&lt;div&gt;Gia&lt;/div&gt;" style="align=left;strokeColor=none;fillColor=none;spacingLeft=4;fontSize=12;verticalAlign=top;resizable=0;rotatable=0;part=1;html=1;" vertex="1" parent="H5hN4v5wa3abcocXyp6K-9">
          <mxGeometry y="50" width="160" height="70" as="geometry" />
        </mxCell>
        <mxCell id="2gxj5F6_k0d30bm6z60c-1" value="" style="edgeStyle=entityRelationEdgeStyle;fontSize=12;html=1;endArrow=ERoneToMany;rounded=0;entryX=0;entryY=0.25;entryDx=0;entryDy=0;exitX=1;exitY=0.25;exitDx=0;exitDy=0;" edge="1" parent="1" source="H5hN4v5wa3abcocXyp6K-2" target="H5hN4v5wa3abcocXyp6K-4">
          <mxGeometry width="100" height="100" relative="1" as="geometry">
            <mxPoint x="414" y="480" as="sourcePoint" />
            <mxPoint x="514" y="380" as="targetPoint" />
          </mxGeometry>
        </mxCell>
        <mxCell id="2gxj5F6_k0d30bm6z60c-2" value="" style="fontSize=12;html=1;endArrow=ERoneToMany;rounded=0;entryX=0.5;entryY=1;entryDx=0;entryDy=0;exitX=0.5;exitY=0;exitDx=0;exitDy=0;" edge="1" parent="1" source="H5hN4v5wa3abcocXyp6K-9" target="H5hN4v5wa3abcocXyp6K-4">
          <mxGeometry width="100" height="100" relative="1" as="geometry">
            <mxPoint x="530" y="490" as="sourcePoint" />
            <mxPoint x="630" y="390" as="targetPoint" />
          </mxGeometry>
        </mxCell>
      </root>
    </mxGraphModel>
  </diagram>
  <diagram id="HWHdgjDDp0XXDB1p_dy3" name="BT5">
    <mxGraphModel dx="1042" dy="565" grid="1" gridSize="10" guides="1" tooltips="1" connect="1" arrows="1" fold="1" page="1" pageScale="1" pageWidth="827" pageHeight="1169" math="0" shadow="0">
      <root>
        <mxCell id="0" />
        <mxCell id="1" parent="0" />
        <mxCell id="CTbyHAB8CUvocaCiIxAj-1" value="Car" style="swimlane;childLayout=stackLayout;horizontal=1;startSize=50;horizontalStack=0;rounded=1;fontSize=14;fontStyle=0;strokeWidth=2;resizeParent=0;resizeLast=1;shadow=0;dashed=0;align=center;arcSize=4;whiteSpace=wrap;html=1;" vertex="1" parent="1">
          <mxGeometry x="600" y="240" width="160" height="120" as="geometry" />
        </mxCell>
        <mxCell id="CTbyHAB8CUvocaCiIxAj-2" value="car_id (PK)&lt;div&gt;car_name&lt;/div&gt;&lt;div&gt;car_type&lt;/div&gt;&lt;div&gt;rental_price_per_day&lt;/div&gt;" style="align=left;strokeColor=none;fillColor=none;spacingLeft=4;fontSize=12;verticalAlign=top;resizable=0;rotatable=0;part=1;html=1;" vertex="1" parent="CTbyHAB8CUvocaCiIxAj-1">
          <mxGeometry y="50" width="160" height="70" as="geometry" />
        </mxCell>
        <mxCell id="CTbyHAB8CUvocaCiIxAj-3" value="Rental" style="swimlane;childLayout=stackLayout;horizontal=1;startSize=50;horizontalStack=0;rounded=1;fontSize=14;fontStyle=0;strokeWidth=2;resizeParent=0;resizeLast=1;shadow=0;dashed=0;align=center;arcSize=4;whiteSpace=wrap;html=1;" vertex="1" parent="1">
          <mxGeometry x="320" y="240" width="160" height="160" as="geometry">
            <mxRectangle x="320" y="240" width="80" height="50" as="alternateBounds" />
          </mxGeometry>
        </mxCell>
        <mxCell id="CTbyHAB8CUvocaCiIxAj-4" value="rental_id (PK)&lt;div&gt;customer_id (FK)&lt;/div&gt;&lt;div&gt;car_id (Fk)&lt;/div&gt;&lt;div&gt;start_date&lt;/div&gt;&lt;div&gt;end_date&lt;/div&gt;&lt;div&gt;total_amount&lt;/div&gt;" style="align=left;strokeColor=none;fillColor=none;spacingLeft=4;fontSize=12;verticalAlign=top;resizable=0;rotatable=0;part=1;html=1;" vertex="1" parent="CTbyHAB8CUvocaCiIxAj-3">
          <mxGeometry y="50" width="160" height="110" as="geometry" />
        </mxCell>
        <mxCell id="CTbyHAB8CUvocaCiIxAj-5" value="Customer" style="swimlane;childLayout=stackLayout;horizontal=1;startSize=50;horizontalStack=0;rounded=1;fontSize=14;fontStyle=0;strokeWidth=2;resizeParent=0;resizeLast=1;shadow=0;dashed=0;align=center;arcSize=4;whiteSpace=wrap;html=1;" vertex="1" parent="1">
          <mxGeometry x="40" y="240" width="160" height="120" as="geometry" />
        </mxCell>
        <mxCell id="CTbyHAB8CUvocaCiIxAj-6" value="customer_id (PK)&lt;div&gt;name&lt;/div&gt;&lt;div&gt;address&lt;/div&gt;&lt;div&gt;phone&lt;/div&gt;" style="align=left;strokeColor=none;fillColor=none;spacingLeft=4;fontSize=12;verticalAlign=top;resizable=0;rotatable=0;part=1;html=1;" vertex="1" parent="CTbyHAB8CUvocaCiIxAj-5">
          <mxGeometry y="50" width="160" height="70" as="geometry" />
        </mxCell>
        <mxCell id="CTbyHAB8CUvocaCiIxAj-8" value="" style="edgeStyle=entityRelationEdgeStyle;fontSize=12;html=1;endArrow=ERoneToMany;rounded=0;entryX=0.997;entryY=0.407;entryDx=0;entryDy=0;exitX=0;exitY=0.25;exitDx=0;exitDy=0;entryPerimeter=0;" edge="1" parent="1" source="CTbyHAB8CUvocaCiIxAj-2" target="CTbyHAB8CUvocaCiIxAj-4">
          <mxGeometry width="100" height="100" relative="1" as="geometry">
            <mxPoint x="470" y="480" as="sourcePoint" />
            <mxPoint x="570" y="380" as="targetPoint" />
          </mxGeometry>
        </mxCell>
        <mxCell id="CTbyHAB8CUvocaCiIxAj-9" value="" style="edgeStyle=entityRelationEdgeStyle;fontSize=12;html=1;endArrow=ERoneToMany;rounded=0;entryX=0;entryY=0.25;entryDx=0;entryDy=0;exitX=1;exitY=0.25;exitDx=0;exitDy=0;" edge="1" parent="1" source="CTbyHAB8CUvocaCiIxAj-6" target="CTbyHAB8CUvocaCiIxAj-4">
          <mxGeometry width="100" height="100" relative="1" as="geometry">
            <mxPoint x="190" y="440" as="sourcePoint" />
            <mxPoint x="290" y="340" as="targetPoint" />
          </mxGeometry>
        </mxCell>
        <mxCell id="eAOGb-Al22VE4MxPoc9V-1" value="&lt;h3 style=&quot;text-align: justify;&quot;&gt;&lt;font style=&quot;font-size: 14px;&quot;&gt;Cách tính tổng số tiền thuê &lt;code&gt;total_amount&lt;/code&gt;&lt;/font&gt;&lt;/h3&gt;&lt;p style=&quot;text-align: justify;&quot;&gt;&lt;font size=&quot;3&quot;&gt;Tổng số tiền thuê được tính dựa trên số ngày thuê và giá thuê mỗi ngày của xe. Cách tính:&lt;/font&gt;&lt;/p&gt;&lt;span title=&quot;ParseError: KaTeX parse error: Expected &#39;EOF&#39;, got &#39;_&#39; at position 12: \text{total_̲amount} = (\tex…&quot; class=&quot;katex-error&quot;&gt;&lt;div style=&quot;text-align: justify;&quot;&gt;&lt;span style=&quot;background-color: initial;&quot;&gt;&lt;font size=&quot;3&quot;&gt;\text{total_amount} = (\text{end_date} - \text{start_date}) \times \text{rental_price_per_day}&lt;/font&gt;&lt;/span&gt;&lt;/div&gt;&lt;/span&gt;&lt;ul&gt;&lt;li&gt;&lt;div style=&quot;text-align: justify;&quot;&gt;&lt;font size=&quot;3&quot;&gt;&lt;strong style=&quot;background-color: initial;&quot;&gt;Ràng buộc tính toán&lt;/strong&gt;&lt;span style=&quot;background-color: initial;&quot;&gt;:&lt;/span&gt;&lt;/font&gt;&lt;/div&gt;&lt;ul&gt;&lt;li style=&quot;text-align: justify;&quot;&gt;&lt;font size=&quot;3&quot;&gt;&lt;strong&gt;Ngày bắt đầu và ngày kết thúc&lt;/strong&gt;: &lt;code&gt;end_date&lt;/code&gt; phải sau &lt;code&gt;start_date&lt;/code&gt; (có thể sử dụng ràng buộc CHECK trong T-SQL).&lt;/font&gt;&lt;/li&gt;&lt;li style=&quot;text-align: justify;&quot;&gt;&lt;font size=&quot;3&quot;&gt;&lt;strong&gt;Giá thuê mỗi ngày&lt;/strong&gt;: &lt;code&gt;rental_price_per_day&lt;/code&gt; phải lớn hơn 0 để tránh lỗi khi tính tổng tiền.&lt;/font&gt;&lt;/li&gt;&lt;li style=&quot;text-align: justify;&quot;&gt;&lt;font size=&quot;3&quot;&gt;&lt;strong&gt;Tự động tính &lt;code&gt;total_amount&lt;/code&gt;&lt;/strong&gt;: Có thể dùng một &lt;strong&gt;trigger&lt;/strong&gt; để tính toán tự động &lt;code&gt;total_amount&lt;/code&gt; dựa trên số ngày thuê và giá thuê mỗi ngày khi một bản ghi mới được thêm vào bảng &lt;code&gt;Rental&lt;/code&gt;.&lt;/font&gt;&lt;/li&gt;&lt;/ul&gt;&lt;/li&gt;&lt;/ul&gt;" style="text;html=1;align=left;verticalAlign=middle;whiteSpace=wrap;rounded=0;" vertex="1" parent="1">
          <mxGeometry x="40" y="400" width="720" height="280" as="geometry" />
        </mxCell>
      </root>
    </mxGraphModel>
  </diagram>
  <diagram id="gMVQvMVwqX7fxle1f1y7" name="BT6">
    <mxGraphModel dx="1042" dy="565" grid="1" gridSize="10" guides="1" tooltips="1" connect="1" arrows="1" fold="1" page="1" pageScale="1" pageWidth="827" pageHeight="1169" math="0" shadow="0">
      <root>
        <mxCell id="0" />
        <mxCell id="1" parent="0" />
        <mxCell id="HUIHdo6BDJgA1byJnP2m-1" value="Event" style="swimlane;childLayout=stackLayout;horizontal=1;startSize=50;horizontalStack=0;rounded=1;fontSize=14;fontStyle=0;strokeWidth=2;resizeParent=0;resizeLast=1;shadow=0;dashed=0;align=center;arcSize=4;whiteSpace=wrap;html=1;" vertex="1" parent="1">
          <mxGeometry x="320" y="240" width="160" height="160" as="geometry" />
        </mxCell>
        <mxCell id="HUIHdo6BDJgA1byJnP2m-2" value="event_id (PK)&lt;div&gt;event_name&lt;/div&gt;&lt;div&gt;event_date&lt;/div&gt;&lt;div&gt;location&lt;/div&gt;&lt;div&gt;budget&lt;/div&gt;" style="align=left;strokeColor=none;fillColor=none;spacingLeft=4;fontSize=12;verticalAlign=top;resizable=0;rotatable=0;part=1;html=1;" vertex="1" parent="HUIHdo6BDJgA1byJnP2m-1">
          <mxGeometry y="50" width="160" height="110" as="geometry" />
        </mxCell>
        <mxCell id="HUIHdo6BDJgA1byJnP2m-3" value="EventSponsor" style="swimlane;childLayout=stackLayout;horizontal=1;startSize=50;horizontalStack=0;rounded=1;fontSize=14;fontStyle=0;strokeWidth=2;resizeParent=0;resizeLast=1;shadow=0;dashed=0;align=center;arcSize=4;whiteSpace=wrap;html=1;" vertex="1" parent="1">
          <mxGeometry x="600" y="240" width="160" height="120" as="geometry" />
        </mxCell>
        <mxCell id="HUIHdo6BDJgA1byJnP2m-4" value="event_id (FK)&lt;div&gt;sponsor_id&amp;nbsp;&lt;span style=&quot;background-color: initial;&quot;&gt;(FK)&lt;/span&gt;&lt;/div&gt;" style="align=left;strokeColor=none;fillColor=none;spacingLeft=4;fontSize=12;verticalAlign=top;resizable=0;rotatable=0;part=1;html=1;" vertex="1" parent="HUIHdo6BDJgA1byJnP2m-3">
          <mxGeometry y="50" width="160" height="70" as="geometry" />
        </mxCell>
        <mxCell id="HUIHdo6BDJgA1byJnP2m-5" value="Attendee" style="swimlane;childLayout=stackLayout;horizontal=1;startSize=50;horizontalStack=0;rounded=1;fontSize=14;fontStyle=0;strokeWidth=2;resizeParent=0;resizeLast=1;shadow=0;dashed=0;align=center;arcSize=4;whiteSpace=wrap;html=1;" vertex="1" parent="1">
          <mxGeometry x="40" y="480" width="160" height="120" as="geometry" />
        </mxCell>
        <mxCell id="HUIHdo6BDJgA1byJnP2m-6" value="attendee_id (PK)&lt;div&gt;attendee_name&lt;/div&gt;&lt;div&gt;email&lt;/div&gt;" style="align=left;strokeColor=none;fillColor=none;spacingLeft=4;fontSize=12;verticalAlign=top;resizable=0;rotatable=0;part=1;html=1;" vertex="1" parent="HUIHdo6BDJgA1byJnP2m-5">
          <mxGeometry y="50" width="160" height="70" as="geometry" />
        </mxCell>
        <mxCell id="HUIHdo6BDJgA1byJnP2m-8" value="Sponsor" style="swimlane;childLayout=stackLayout;horizontal=1;startSize=50;horizontalStack=0;rounded=1;fontSize=14;fontStyle=0;strokeWidth=2;resizeParent=0;resizeLast=1;shadow=0;dashed=0;align=center;arcSize=4;whiteSpace=wrap;html=1;" vertex="1" parent="1">
          <mxGeometry x="600" y="480" width="160" height="120" as="geometry" />
        </mxCell>
        <mxCell id="HUIHdo6BDJgA1byJnP2m-9" value="sponsor_id (PK)&lt;div&gt;sponsor_name&lt;/div&gt;&lt;div&gt;sponsorship_amount&lt;/div&gt;" style="align=left;strokeColor=none;fillColor=none;spacingLeft=4;fontSize=12;verticalAlign=top;resizable=0;rotatable=0;part=1;html=1;" vertex="1" parent="HUIHdo6BDJgA1byJnP2m-8">
          <mxGeometry y="50" width="160" height="70" as="geometry" />
        </mxCell>
        <mxCell id="HUIHdo6BDJgA1byJnP2m-10" value="" style="edgeStyle=entityRelationEdgeStyle;fontSize=12;html=1;endArrow=ERoneToMany;rounded=0;entryX=0;entryY=0.25;entryDx=0;entryDy=0;exitX=1;exitY=0.25;exitDx=0;exitDy=0;" edge="1" parent="1" source="HUIHdo6BDJgA1byJnP2m-2" target="HUIHdo6BDJgA1byJnP2m-4">
          <mxGeometry width="100" height="100" relative="1" as="geometry">
            <mxPoint x="414" y="480" as="sourcePoint" />
            <mxPoint x="514" y="380" as="targetPoint" />
          </mxGeometry>
        </mxCell>
        <mxCell id="HUIHdo6BDJgA1byJnP2m-11" value="" style="fontSize=12;html=1;endArrow=ERoneToMany;rounded=0;entryX=0.5;entryY=1;entryDx=0;entryDy=0;exitX=0.5;exitY=0;exitDx=0;exitDy=0;" edge="1" parent="1" source="HUIHdo6BDJgA1byJnP2m-8" target="HUIHdo6BDJgA1byJnP2m-4">
          <mxGeometry width="100" height="100" relative="1" as="geometry">
            <mxPoint x="530" y="490" as="sourcePoint" />
            <mxPoint x="630" y="390" as="targetPoint" />
          </mxGeometry>
        </mxCell>
        <mxCell id="HUIHdo6BDJgA1byJnP2m-12" value="EventAttendee" style="swimlane;childLayout=stackLayout;horizontal=1;startSize=50;horizontalStack=0;rounded=1;fontSize=14;fontStyle=0;strokeWidth=2;resizeParent=0;resizeLast=1;shadow=0;dashed=0;align=center;arcSize=4;whiteSpace=wrap;html=1;" vertex="1" parent="1">
          <mxGeometry x="40" y="240" width="160" height="120" as="geometry" />
        </mxCell>
        <mxCell id="HUIHdo6BDJgA1byJnP2m-13" value="event_id (FK)&lt;div&gt;attendee_id (FK)&lt;/div&gt;" style="align=left;strokeColor=none;fillColor=none;spacingLeft=4;fontSize=12;verticalAlign=top;resizable=0;rotatable=0;part=1;html=1;" vertex="1" parent="HUIHdo6BDJgA1byJnP2m-12">
          <mxGeometry y="50" width="160" height="70" as="geometry" />
        </mxCell>
        <mxCell id="HUIHdo6BDJgA1byJnP2m-14" value="" style="fontSize=12;html=1;endArrow=ERoneToMany;rounded=0;entryX=0.5;entryY=1;entryDx=0;entryDy=0;exitX=0.5;exitY=0;exitDx=0;exitDy=0;" edge="1" parent="1" source="HUIHdo6BDJgA1byJnP2m-5" target="HUIHdo6BDJgA1byJnP2m-13">
          <mxGeometry width="100" height="100" relative="1" as="geometry">
            <mxPoint x="250" y="440" as="sourcePoint" />
            <mxPoint x="370" y="440" as="targetPoint" />
          </mxGeometry>
        </mxCell>
        <mxCell id="HUIHdo6BDJgA1byJnP2m-15" value="" style="edgeStyle=entityRelationEdgeStyle;fontSize=12;html=1;endArrow=ERoneToMany;rounded=0;entryX=1;entryY=0.25;entryDx=0;entryDy=0;exitX=0;exitY=0.25;exitDx=0;exitDy=0;" edge="1" parent="1" source="HUIHdo6BDJgA1byJnP2m-2" target="HUIHdo6BDJgA1byJnP2m-13">
          <mxGeometry width="100" height="100" relative="1" as="geometry">
            <mxPoint x="200" y="400" as="sourcePoint" />
            <mxPoint x="320" y="400" as="targetPoint" />
          </mxGeometry>
        </mxCell>
      </root>
    </mxGraphModel>
  </diagram>
  <diagram id="dReix_nKtDOKqz1SuQSb" name="BT7">
    <mxGraphModel dx="906" dy="491" grid="1" gridSize="10" guides="1" tooltips="1" connect="1" arrows="1" fold="1" page="1" pageScale="1" pageWidth="827" pageHeight="1169" math="0" shadow="0">
      <root>
        <mxCell id="0" />
        <mxCell id="1" parent="0" />
        <mxCell id="gB4yHz4R4tEEC2rV8Uwt-1" value="Reservation" style="swimlane;childLayout=stackLayout;horizontal=1;startSize=50;horizontalStack=0;rounded=1;fontSize=14;fontStyle=0;strokeWidth=2;resizeParent=0;resizeLast=1;shadow=0;dashed=0;align=center;arcSize=4;whiteSpace=wrap;html=1;" vertex="1" parent="1">
          <mxGeometry x="320" y="240" width="160" height="160" as="geometry" />
        </mxCell>
        <mxCell id="gB4yHz4R4tEEC2rV8Uwt-2" value="&lt;span class=&quot;hljs-built_in&quot;&gt;reservation_id&lt;/span&gt;(PK)&lt;div&gt;guest_id (FK)&lt;/div&gt;&lt;div&gt;room_id (FK)&lt;/div&gt;&lt;div&gt;start_date&lt;/div&gt;&lt;div&gt;end_date&lt;/div&gt;" style="align=left;strokeColor=none;fillColor=none;spacingLeft=4;fontSize=12;verticalAlign=top;resizable=0;rotatable=0;part=1;html=1;" vertex="1" parent="gB4yHz4R4tEEC2rV8Uwt-1">
          <mxGeometry y="50" width="160" height="110" as="geometry" />
        </mxCell>
        <mxCell id="gB4yHz4R4tEEC2rV8Uwt-3" value="Room" style="swimlane;childLayout=stackLayout;horizontal=1;startSize=50;horizontalStack=0;rounded=1;fontSize=14;fontStyle=0;strokeWidth=2;resizeParent=0;resizeLast=1;shadow=0;dashed=0;align=center;arcSize=4;whiteSpace=wrap;html=1;" vertex="1" parent="1">
          <mxGeometry x="600" y="240" width="160" height="120" as="geometry" />
        </mxCell>
        <mxCell id="gB4yHz4R4tEEC2rV8Uwt-4" value="room_id (PK)&lt;div&gt;room_type&lt;/div&gt;&lt;div&gt;price_per_night&lt;/div&gt;" style="align=left;strokeColor=none;fillColor=none;spacingLeft=4;fontSize=12;verticalAlign=top;resizable=0;rotatable=0;part=1;html=1;" vertex="1" parent="gB4yHz4R4tEEC2rV8Uwt-3">
          <mxGeometry y="50" width="160" height="70" as="geometry" />
        </mxCell>
        <mxCell id="gB4yHz4R4tEEC2rV8Uwt-5" value="Service" style="swimlane;childLayout=stackLayout;horizontal=1;startSize=50;horizontalStack=0;rounded=1;fontSize=14;fontStyle=0;strokeWidth=2;resizeParent=0;resizeLast=1;shadow=0;dashed=0;align=center;arcSize=4;whiteSpace=wrap;html=1;" vertex="1" parent="1">
          <mxGeometry x="40" y="520" width="160" height="120" as="geometry" />
        </mxCell>
        <mxCell id="gB4yHz4R4tEEC2rV8Uwt-6" value="service_id (PK)&lt;div&gt;service_name&lt;/div&gt;&lt;div&gt;service_price&lt;/div&gt;" style="align=left;strokeColor=none;fillColor=none;spacingLeft=4;fontSize=12;verticalAlign=top;resizable=0;rotatable=0;part=1;html=1;" vertex="1" parent="gB4yHz4R4tEEC2rV8Uwt-5">
          <mxGeometry y="50" width="160" height="70" as="geometry" />
        </mxCell>
        <mxCell id="gB4yHz4R4tEEC2rV8Uwt-7" value="ServiceUsage" style="swimlane;childLayout=stackLayout;horizontal=1;startSize=50;horizontalStack=0;rounded=1;fontSize=14;fontStyle=0;strokeWidth=2;resizeParent=0;resizeLast=1;shadow=0;dashed=0;align=center;arcSize=4;whiteSpace=wrap;html=1;" vertex="1" parent="1">
          <mxGeometry x="320" y="520" width="160" height="120" as="geometry" />
        </mxCell>
        <mxCell id="gB4yHz4R4tEEC2rV8Uwt-8" value="&lt;span class=&quot;hljs-built_in&quot;&gt;service_usage_id&lt;/span&gt;(PK)&lt;div&gt;reservation_id (FK)&lt;/div&gt;&lt;div&gt;service_id (FK)&lt;/div&gt;&lt;div&gt;usage_date&lt;/div&gt;" style="align=left;strokeColor=none;fillColor=none;spacingLeft=4;fontSize=12;verticalAlign=top;resizable=0;rotatable=0;part=1;html=1;" vertex="1" parent="gB4yHz4R4tEEC2rV8Uwt-7">
          <mxGeometry y="50" width="160" height="70" as="geometry" />
        </mxCell>
        <mxCell id="gB4yHz4R4tEEC2rV8Uwt-9" value="" style="edgeStyle=entityRelationEdgeStyle;fontSize=12;html=1;endArrow=ERoneToMany;rounded=0;entryX=0;entryY=0.25;entryDx=0;entryDy=0;exitX=1;exitY=0.25;exitDx=0;exitDy=0;" edge="1" parent="1" source="gB4yHz4R4tEEC2rV8Uwt-2" target="gB4yHz4R4tEEC2rV8Uwt-4">
          <mxGeometry width="100" height="100" relative="1" as="geometry">
            <mxPoint x="428" y="480" as="sourcePoint" />
            <mxPoint x="528" y="380" as="targetPoint" />
          </mxGeometry>
        </mxCell>
        <mxCell id="gB4yHz4R4tEEC2rV8Uwt-10" value="" style="fontSize=12;html=1;endArrow=ERoneToMany;rounded=0;exitX=0.5;exitY=1;exitDx=0;exitDy=0;entryX=0.5;entryY=0;entryDx=0;entryDy=0;" edge="1" parent="1" source="gB4yHz4R4tEEC2rV8Uwt-2" target="gB4yHz4R4tEEC2rV8Uwt-7">
          <mxGeometry width="100" height="100" relative="1" as="geometry">
            <mxPoint x="560" y="480" as="sourcePoint" />
            <mxPoint x="440" y="490" as="targetPoint" />
          </mxGeometry>
        </mxCell>
        <mxCell id="gB4yHz4R4tEEC2rV8Uwt-11" value="Guest" style="swimlane;childLayout=stackLayout;horizontal=1;startSize=50;horizontalStack=0;rounded=1;fontSize=14;fontStyle=0;strokeWidth=2;resizeParent=0;resizeLast=1;shadow=0;dashed=0;align=center;arcSize=4;whiteSpace=wrap;html=1;" vertex="1" parent="1">
          <mxGeometry x="40" y="240" width="160" height="120" as="geometry" />
        </mxCell>
        <mxCell id="gB4yHz4R4tEEC2rV8Uwt-12" value="guest_id (PK)&lt;div&gt;name&lt;/div&gt;&lt;div&gt;address&lt;/div&gt;&lt;div&gt;email&lt;/div&gt;" style="align=left;strokeColor=none;fillColor=none;spacingLeft=4;fontSize=12;verticalAlign=top;resizable=0;rotatable=0;part=1;html=1;" vertex="1" parent="gB4yHz4R4tEEC2rV8Uwt-11">
          <mxGeometry y="50" width="160" height="70" as="geometry" />
        </mxCell>
        <mxCell id="gB4yHz4R4tEEC2rV8Uwt-13" value="" style="fontSize=12;html=1;endArrow=ERoneToMany;rounded=0;entryX=0;entryY=0.5;entryDx=0;entryDy=0;exitX=0.999;exitY=0.121;exitDx=0;exitDy=0;exitPerimeter=0;" edge="1" parent="1" source="gB4yHz4R4tEEC2rV8Uwt-6" target="gB4yHz4R4tEEC2rV8Uwt-7">
          <mxGeometry width="100" height="100" relative="1" as="geometry">
            <mxPoint x="200" y="540" as="sourcePoint" />
            <mxPoint x="270" y="380" as="targetPoint" />
          </mxGeometry>
        </mxCell>
        <mxCell id="gB4yHz4R4tEEC2rV8Uwt-14" value="" style="edgeStyle=entityRelationEdgeStyle;fontSize=12;html=1;endArrow=ERoneToMany;rounded=0;entryX=1;entryY=0.25;entryDx=0;entryDy=0;exitX=0;exitY=0.25;exitDx=0;exitDy=0;" edge="1" parent="1" source="gB4yHz4R4tEEC2rV8Uwt-2" target="gB4yHz4R4tEEC2rV8Uwt-12">
          <mxGeometry width="100" height="100" relative="1" as="geometry">
            <mxPoint x="214" y="400" as="sourcePoint" />
            <mxPoint x="334" y="400" as="targetPoint" />
          </mxGeometry>
        </mxCell>
      </root>
    </mxGraphModel>
  </diagram>
  <diagram id="OKuBtyi8JKSPpRX4QpWL" name="BT8">
    <mxGraphModel dx="1097" dy="595" grid="1" gridSize="10" guides="1" tooltips="1" connect="1" arrows="1" fold="1" page="1" pageScale="1" pageWidth="827" pageHeight="1169" math="0" shadow="0">
      <root>
        <mxCell id="0" />
        <mxCell id="1" parent="0" />
        <mxCell id="ywenfOwbJsUyX40Pqkc2-1" value="Assignment" style="swimlane;childLayout=stackLayout;horizontal=1;startSize=50;horizontalStack=0;rounded=1;fontSize=14;fontStyle=0;strokeWidth=2;resizeParent=0;resizeLast=1;shadow=0;dashed=0;align=center;arcSize=4;whiteSpace=wrap;html=1;" vertex="1" parent="1">
          <mxGeometry x="320" y="240" width="160" height="160" as="geometry" />
        </mxCell>
        <mxCell id="ywenfOwbJsUyX40Pqkc2-2" value="&lt;span class=&quot;hljs-built_in&quot;&gt;assignment_id&lt;/span&gt;(PK)&lt;div&gt;project_id (FK)&lt;/div&gt;&lt;div&gt;employee_id (FK)&lt;/div&gt;&lt;div&gt;start_date&lt;/div&gt;&lt;div&gt;end_date&lt;/div&gt;" style="align=left;strokeColor=none;fillColor=none;spacingLeft=4;fontSize=12;verticalAlign=top;resizable=0;rotatable=0;part=1;html=1;" vertex="1" parent="ywenfOwbJsUyX40Pqkc2-1">
          <mxGeometry y="50" width="160" height="110" as="geometry" />
        </mxCell>
        <mxCell id="ywenfOwbJsUyX40Pqkc2-3" value="Project" style="swimlane;childLayout=stackLayout;horizontal=1;startSize=50;horizontalStack=0;rounded=1;fontSize=14;fontStyle=0;strokeWidth=2;resizeParent=0;resizeLast=1;shadow=0;dashed=0;align=center;arcSize=4;whiteSpace=wrap;html=1;" vertex="1" parent="1">
          <mxGeometry x="600" y="240" width="160" height="160" as="geometry" />
        </mxCell>
        <mxCell id="ywenfOwbJsUyX40Pqkc2-4" value="&lt;span class=&quot;hljs-built_in&quot;&gt;project_id&lt;/span&gt;(PK)&lt;div&gt;project_name&lt;/div&gt;&lt;div&gt;start_date&lt;/div&gt;&lt;div&gt;end_date&lt;/div&gt;&lt;div&gt;budget&lt;/div&gt;" style="align=left;strokeColor=none;fillColor=none;spacingLeft=4;fontSize=12;verticalAlign=top;resizable=0;rotatable=0;part=1;html=1;" vertex="1" parent="ywenfOwbJsUyX40Pqkc2-3">
          <mxGeometry y="50" width="160" height="110" as="geometry" />
        </mxCell>
        <mxCell id="ywenfOwbJsUyX40Pqkc2-5" value="Employee" style="swimlane;childLayout=stackLayout;horizontal=1;startSize=50;horizontalStack=0;rounded=1;fontSize=14;fontStyle=0;strokeWidth=2;resizeParent=0;resizeLast=1;shadow=0;dashed=0;align=center;arcSize=4;whiteSpace=wrap;html=1;" vertex="1" parent="1">
          <mxGeometry x="40" y="250" width="160" height="120" as="geometry" />
        </mxCell>
        <mxCell id="ywenfOwbJsUyX40Pqkc2-6" value="&lt;span class=&quot;hljs-built_in&quot;&gt;employee_id&lt;/span&gt;(PK)&lt;div&gt;employee_name&lt;/div&gt;&lt;div&gt;position&lt;/div&gt;" style="align=left;strokeColor=none;fillColor=none;spacingLeft=4;fontSize=12;verticalAlign=top;resizable=0;rotatable=0;part=1;html=1;" vertex="1" parent="ywenfOwbJsUyX40Pqkc2-5">
          <mxGeometry y="50" width="160" height="70" as="geometry" />
        </mxCell>
        <mxCell id="ywenfOwbJsUyX40Pqkc2-7" value="" style="fontSize=12;html=1;endArrow=ERoneToMany;startArrow=ERmandOne;rounded=0;exitX=0.5;exitY=1;exitDx=0;exitDy=0;entryX=0.5;entryY=0;entryDx=0;entryDy=0;" edge="1" parent="1" source="ywenfOwbJsUyX40Pqkc2-4" target="ywenfOwbJsUyX40Pqkc2-8">
          <mxGeometry width="100" height="100" relative="1" as="geometry">
            <mxPoint x="500" y="450" as="sourcePoint" />
            <mxPoint x="560" y="430" as="targetPoint" />
          </mxGeometry>
        </mxCell>
        <mxCell id="ywenfOwbJsUyX40Pqkc2-8" value="Task" style="swimlane;childLayout=stackLayout;horizontal=1;startSize=50;horizontalStack=0;rounded=1;fontSize=14;fontStyle=0;strokeWidth=2;resizeParent=0;resizeLast=1;shadow=0;dashed=0;align=center;arcSize=4;whiteSpace=wrap;html=1;" vertex="1" parent="1">
          <mxGeometry x="600" y="520" width="160" height="160" as="geometry" />
        </mxCell>
        <mxCell id="ywenfOwbJsUyX40Pqkc2-9" value="task_id (PK)&amp;nbsp;&lt;div&gt;task_name&lt;/div&gt;&lt;div&gt;project_id (FK)&lt;/div&gt;&lt;div&gt;start_date&lt;/div&gt;&lt;div&gt;end_date&lt;/div&gt;&lt;div&gt;status&lt;/div&gt;" style="align=left;strokeColor=none;fillColor=none;spacingLeft=4;fontSize=12;verticalAlign=top;resizable=0;rotatable=0;part=1;html=1;" vertex="1" parent="ywenfOwbJsUyX40Pqkc2-8">
          <mxGeometry y="50" width="160" height="110" as="geometry" />
        </mxCell>
        <mxCell id="ywenfOwbJsUyX40Pqkc2-10" value="" style="edgeStyle=entityRelationEdgeStyle;fontSize=12;html=1;endArrow=ERoneToMany;rounded=0;exitX=0;exitY=0.25;exitDx=0;exitDy=0;entryX=1;entryY=0.25;entryDx=0;entryDy=0;" edge="1" parent="1" source="ywenfOwbJsUyX40Pqkc2-4" target="ywenfOwbJsUyX40Pqkc2-2">
          <mxGeometry width="100" height="100" relative="1" as="geometry">
            <mxPoint x="414" y="480" as="sourcePoint" />
            <mxPoint x="510" y="350" as="targetPoint" />
          </mxGeometry>
        </mxCell>
        <mxCell id="ywenfOwbJsUyX40Pqkc2-11" value="" style="fontSize=12;html=1;endArrow=ERoneToMany;rounded=0;entryX=0;entryY=0.25;entryDx=0;entryDy=0;" edge="1" parent="1" target="ywenfOwbJsUyX40Pqkc2-2">
          <mxGeometry width="100" height="100" relative="1" as="geometry">
            <mxPoint x="200" y="320" as="sourcePoint" />
            <mxPoint x="230" y="420" as="targetPoint" />
            <Array as="points">
              <mxPoint x="200" y="320" />
            </Array>
          </mxGeometry>
        </mxCell>
      </root>
    </mxGraphModel>
  </diagram>
  <diagram id="d3EFro_T1DGLIzHxdtF2" name="BT10">
    <mxGraphModel dx="1042" dy="565" grid="1" gridSize="10" guides="1" tooltips="1" connect="1" arrows="1" fold="1" page="1" pageScale="1" pageWidth="827" pageHeight="1169" math="0" shadow="0">
      <root>
        <mxCell id="0" />
        <mxCell id="1" parent="0" />
        <mxCell id="zGFiEb7aJbqXeEF-eaQ0-1" value="Product" style="swimlane;childLayout=stackLayout;horizontal=1;startSize=50;horizontalStack=0;rounded=1;fontSize=14;fontStyle=0;strokeWidth=2;resizeParent=0;resizeLast=1;shadow=0;dashed=0;align=center;arcSize=4;whiteSpace=wrap;html=1;" vertex="1" parent="1">
          <mxGeometry x="320" y="240" width="160" height="120" as="geometry" />
        </mxCell>
        <mxCell id="zGFiEb7aJbqXeEF-eaQ0-2" value="ProductID (PK)&lt;div&gt;ProductName&lt;/div&gt;&lt;div&gt;ProductType&lt;/div&gt;&lt;div&gt;ProductPrice&lt;/div&gt;" style="align=left;strokeColor=none;fillColor=none;spacingLeft=4;fontSize=12;verticalAlign=top;resizable=0;rotatable=0;part=1;html=1;" vertex="1" parent="zGFiEb7aJbqXeEF-eaQ0-1">
          <mxGeometry y="50" width="160" height="70" as="geometry" />
        </mxCell>
        <mxCell id="zGFiEb7aJbqXeEF-eaQ0-3" value="OrderDetail" style="swimlane;childLayout=stackLayout;horizontal=1;startSize=50;horizontalStack=0;rounded=1;fontSize=14;fontStyle=0;strokeWidth=2;resizeParent=0;resizeLast=1;shadow=0;dashed=0;align=center;arcSize=4;whiteSpace=wrap;html=1;" vertex="1" parent="1">
          <mxGeometry x="600" y="240" width="160" height="120" as="geometry" />
        </mxCell>
        <mxCell id="zGFiEb7aJbqXeEF-eaQ0-4" value="OrderID (FK)&lt;div&gt;ProductID (FK)&lt;/div&gt;&lt;div&gt;Quantity&lt;/div&gt;&lt;div&gt;UnitPrice&lt;/div&gt;" style="align=left;strokeColor=none;fillColor=none;spacingLeft=4;fontSize=12;verticalAlign=top;resizable=0;rotatable=0;part=1;html=1;" vertex="1" parent="zGFiEb7aJbqXeEF-eaQ0-3">
          <mxGeometry y="50" width="160" height="70" as="geometry" />
        </mxCell>
        <mxCell id="zGFiEb7aJbqXeEF-eaQ0-5" value="Warehouse" style="swimlane;childLayout=stackLayout;horizontal=1;startSize=50;horizontalStack=0;rounded=1;fontSize=14;fontStyle=0;strokeWidth=2;resizeParent=0;resizeLast=1;shadow=0;dashed=0;align=center;arcSize=4;whiteSpace=wrap;html=1;" vertex="1" parent="1">
          <mxGeometry x="40" y="480" width="160" height="120" as="geometry" />
        </mxCell>
        <mxCell id="zGFiEb7aJbqXeEF-eaQ0-6" value="WarehouseID (PK)&lt;div&gt;WarehouseName&lt;/div&gt;&lt;div&gt;Address&lt;/div&gt;" style="align=left;strokeColor=none;fillColor=none;spacingLeft=4;fontSize=12;verticalAlign=top;resizable=0;rotatable=0;part=1;html=1;" vertex="1" parent="zGFiEb7aJbqXeEF-eaQ0-5">
          <mxGeometry y="50" width="160" height="70" as="geometry" />
        </mxCell>
        <mxCell id="zGFiEb7aJbqXeEF-eaQ0-7" value="Order" style="swimlane;childLayout=stackLayout;horizontal=1;startSize=50;horizontalStack=0;rounded=1;fontSize=14;fontStyle=0;strokeWidth=2;resizeParent=0;resizeLast=1;shadow=0;dashed=0;align=center;arcSize=4;whiteSpace=wrap;html=1;" vertex="1" parent="1">
          <mxGeometry x="600" y="480" width="160" height="120" as="geometry" />
        </mxCell>
        <mxCell id="zGFiEb7aJbqXeEF-eaQ0-8" value="OrderID (PK)&lt;div&gt;OrderDate&lt;/div&gt;&lt;div&gt;DeliveryDate&lt;/div&gt;&lt;div&gt;TotalAmount&lt;/div&gt;" style="align=left;strokeColor=none;fillColor=none;spacingLeft=4;fontSize=12;verticalAlign=top;resizable=0;rotatable=0;part=1;html=1;" vertex="1" parent="zGFiEb7aJbqXeEF-eaQ0-7">
          <mxGeometry y="50" width="160" height="70" as="geometry" />
        </mxCell>
        <mxCell id="zGFiEb7aJbqXeEF-eaQ0-9" value="" style="edgeStyle=entityRelationEdgeStyle;fontSize=12;html=1;endArrow=ERoneToMany;rounded=0;entryX=0;entryY=0.25;entryDx=0;entryDy=0;exitX=1;exitY=0.25;exitDx=0;exitDy=0;" edge="1" parent="1" source="zGFiEb7aJbqXeEF-eaQ0-2" target="zGFiEb7aJbqXeEF-eaQ0-4">
          <mxGeometry width="100" height="100" relative="1" as="geometry">
            <mxPoint x="414" y="480" as="sourcePoint" />
            <mxPoint x="514" y="380" as="targetPoint" />
          </mxGeometry>
        </mxCell>
        <mxCell id="zGFiEb7aJbqXeEF-eaQ0-10" value="" style="fontSize=12;html=1;endArrow=ERoneToMany;rounded=0;entryX=0.5;entryY=1;entryDx=0;entryDy=0;exitX=0.5;exitY=0;exitDx=0;exitDy=0;" edge="1" parent="1" source="zGFiEb7aJbqXeEF-eaQ0-7" target="zGFiEb7aJbqXeEF-eaQ0-4">
          <mxGeometry width="100" height="100" relative="1" as="geometry">
            <mxPoint x="530" y="490" as="sourcePoint" />
            <mxPoint x="630" y="390" as="targetPoint" />
          </mxGeometry>
        </mxCell>
        <mxCell id="zGFiEb7aJbqXeEF-eaQ0-11" value="Stock" style="swimlane;childLayout=stackLayout;horizontal=1;startSize=50;horizontalStack=0;rounded=1;fontSize=14;fontStyle=0;strokeWidth=2;resizeParent=0;resizeLast=1;shadow=0;dashed=0;align=center;arcSize=4;whiteSpace=wrap;html=1;" vertex="1" parent="1">
          <mxGeometry x="40" y="240" width="160" height="120" as="geometry" />
        </mxCell>
        <mxCell id="zGFiEb7aJbqXeEF-eaQ0-12" value="WarehouseID (FK)&lt;div&gt;ProductID (FK)&lt;/div&gt;&lt;div&gt;Quantity&lt;/div&gt;" style="align=left;strokeColor=none;fillColor=none;spacingLeft=4;fontSize=12;verticalAlign=top;resizable=0;rotatable=0;part=1;html=1;" vertex="1" parent="zGFiEb7aJbqXeEF-eaQ0-11">
          <mxGeometry y="50" width="160" height="70" as="geometry" />
        </mxCell>
        <mxCell id="zGFiEb7aJbqXeEF-eaQ0-13" value="" style="fontSize=12;html=1;endArrow=ERoneToMany;rounded=0;entryX=0.5;entryY=1;entryDx=0;entryDy=0;exitX=0.5;exitY=0;exitDx=0;exitDy=0;" edge="1" parent="1" source="zGFiEb7aJbqXeEF-eaQ0-5" target="zGFiEb7aJbqXeEF-eaQ0-12">
          <mxGeometry width="100" height="100" relative="1" as="geometry">
            <mxPoint x="250" y="440" as="sourcePoint" />
            <mxPoint x="370" y="440" as="targetPoint" />
          </mxGeometry>
        </mxCell>
        <mxCell id="zGFiEb7aJbqXeEF-eaQ0-14" value="" style="edgeStyle=entityRelationEdgeStyle;fontSize=12;html=1;endArrow=ERoneToMany;rounded=0;entryX=1;entryY=0.25;entryDx=0;entryDy=0;exitX=0;exitY=0.25;exitDx=0;exitDy=0;" edge="1" parent="1" source="zGFiEb7aJbqXeEF-eaQ0-2" target="zGFiEb7aJbqXeEF-eaQ0-12">
          <mxGeometry width="100" height="100" relative="1" as="geometry">
            <mxPoint x="200" y="400" as="sourcePoint" />
            <mxPoint x="320" y="400" as="targetPoint" />
          </mxGeometry>
        </mxCell>
      </root>
    </mxGraphModel>
  </diagram>
</mxfile>
